<mxfile host="app.diagrams.net" modified="2024-01-31T08:27:32.198Z" agent="Mozilla/5.0 (Macintosh; Intel Mac OS X 10_15_7) AppleWebKit/537.36 (KHTML, like Gecko) Chrome/120.0.0.0 Safari/537.36" etag="0uMlZm24ZNm9iYgsgMn2" version="23.0.2" type="github">
  <diagram id="C5RBs43oDa-KdzZeNtuy" name="Page-1">
    <mxGraphModel dx="1314" dy="840" grid="1" gridSize="10" guides="1" tooltips="1" connect="1" arrows="1" fold="1" page="1" pageScale="1" pageWidth="827" pageHeight="1169" math="0" shadow="0">
      <root>
        <mxCell id="WIyWlLk6GJQsqaUBKTNV-0" />
        <mxCell id="WIyWlLk6GJQsqaUBKTNV-1" parent="WIyWlLk6GJQsqaUBKTNV-0" />
        <mxCell id="WIyWlLk6GJQsqaUBKTNV-2" value="" style="rounded=0;html=1;jettySize=auto;orthogonalLoop=1;fontSize=11;endArrow=block;endFill=0;endSize=8;strokeWidth=1;shadow=0;labelBackgroundColor=none;edgeStyle=orthogonalEdgeStyle;" parent="WIyWlLk6GJQsqaUBKTNV-1" source="WIyWlLk6GJQsqaUBKTNV-3" target="WIyWlLk6GJQsqaUBKTNV-6" edge="1">
          <mxGeometry relative="1" as="geometry" />
        </mxCell>
        <mxCell id="WIyWlLk6GJQsqaUBKTNV-3" value="后台现有提现检测" style="rounded=1;whiteSpace=wrap;html=1;fontSize=12;glass=0;strokeWidth=1;shadow=0;" parent="WIyWlLk6GJQsqaUBKTNV-1" vertex="1">
          <mxGeometry x="160" y="80" width="120" height="40" as="geometry" />
        </mxCell>
        <mxCell id="WIyWlLk6GJQsqaUBKTNV-4" value="No" style="rounded=0;html=1;jettySize=auto;orthogonalLoop=1;fontSize=11;endArrow=block;endFill=0;endSize=8;strokeWidth=1;shadow=0;labelBackgroundColor=none;edgeStyle=orthogonalEdgeStyle;" parent="WIyWlLk6GJQsqaUBKTNV-1" source="WIyWlLk6GJQsqaUBKTNV-6" target="WIyWlLk6GJQsqaUBKTNV-10" edge="1">
          <mxGeometry y="20" relative="1" as="geometry">
            <mxPoint as="offset" />
          </mxGeometry>
        </mxCell>
        <mxCell id="WIyWlLk6GJQsqaUBKTNV-5" value="触发" style="edgeStyle=orthogonalEdgeStyle;rounded=0;html=1;jettySize=auto;orthogonalLoop=1;fontSize=11;endArrow=block;endFill=0;endSize=8;strokeWidth=1;shadow=0;labelBackgroundColor=none;" parent="WIyWlLk6GJQsqaUBKTNV-1" source="WIyWlLk6GJQsqaUBKTNV-6" target="WIyWlLk6GJQsqaUBKTNV-7" edge="1">
          <mxGeometry y="10" relative="1" as="geometry">
            <mxPoint as="offset" />
          </mxGeometry>
        </mxCell>
        <mxCell id="WIyWlLk6GJQsqaUBKTNV-6" value="3秒限制" style="rhombus;whiteSpace=wrap;html=1;shadow=0;fontFamily=Helvetica;fontSize=12;align=center;strokeWidth=1;spacing=6;spacingTop=-4;" parent="WIyWlLk6GJQsqaUBKTNV-1" vertex="1">
          <mxGeometry x="170" y="170" width="100" height="80" as="geometry" />
        </mxCell>
        <mxCell id="WIyWlLk6GJQsqaUBKTNV-7" value="提示操作频繁，3秒以后才能继续提交" style="rounded=1;whiteSpace=wrap;html=1;fontSize=12;glass=0;strokeWidth=1;shadow=0;" parent="WIyWlLk6GJQsqaUBKTNV-1" vertex="1">
          <mxGeometry x="400" y="190" width="120" height="40" as="geometry" />
        </mxCell>
        <mxCell id="WIyWlLk6GJQsqaUBKTNV-8" value="No" style="rounded=0;html=1;jettySize=auto;orthogonalLoop=1;fontSize=11;endArrow=block;endFill=0;endSize=8;strokeWidth=1;shadow=0;labelBackgroundColor=none;edgeStyle=orthogonalEdgeStyle;entryX=0.5;entryY=0;entryDx=0;entryDy=0;" parent="WIyWlLk6GJQsqaUBKTNV-1" source="le7CtPeld823Pj0fUWE6-14" target="le7CtPeld823Pj0fUWE6-19" edge="1">
          <mxGeometry x="0.3355" y="20" relative="1" as="geometry">
            <mxPoint as="offset" />
            <mxPoint x="270" y="1710" as="targetPoint" />
          </mxGeometry>
        </mxCell>
        <mxCell id="WIyWlLk6GJQsqaUBKTNV-9" value="触发" style="edgeStyle=orthogonalEdgeStyle;rounded=0;html=1;jettySize=auto;orthogonalLoop=1;fontSize=11;endArrow=block;endFill=0;endSize=8;strokeWidth=1;shadow=0;labelBackgroundColor=none;" parent="WIyWlLk6GJQsqaUBKTNV-1" source="WIyWlLk6GJQsqaUBKTNV-10" target="WIyWlLk6GJQsqaUBKTNV-12" edge="1">
          <mxGeometry y="10" relative="1" as="geometry">
            <mxPoint as="offset" />
          </mxGeometry>
        </mxCell>
        <mxCell id="WIyWlLk6GJQsqaUBKTNV-10" value="是否需要kyc" style="rhombus;whiteSpace=wrap;html=1;shadow=0;fontFamily=Helvetica;fontSize=12;align=center;strokeWidth=1;spacing=6;spacingTop=-4;" parent="WIyWlLk6GJQsqaUBKTNV-1" vertex="1">
          <mxGeometry x="170" y="290" width="100" height="80" as="geometry" />
        </mxCell>
        <mxCell id="WIyWlLk6GJQsqaUBKTNV-11" value="Repair Lamp" style="rounded=1;whiteSpace=wrap;html=1;fontSize=12;glass=0;strokeWidth=1;shadow=0;" parent="WIyWlLk6GJQsqaUBKTNV-1" vertex="1">
          <mxGeometry x="160.01999999999998" y="4620" width="120" height="40" as="geometry" />
        </mxCell>
        <mxCell id="WIyWlLk6GJQsqaUBKTNV-12" value="提示kyc认证流程" style="rounded=1;whiteSpace=wrap;html=1;fontSize=12;glass=0;strokeWidth=1;shadow=0;" parent="WIyWlLk6GJQsqaUBKTNV-1" vertex="1">
          <mxGeometry x="390" y="310" width="120" height="40" as="geometry" />
        </mxCell>
        <mxCell id="le7CtPeld823Pj0fUWE6-1" value="" style="rounded=0;html=1;jettySize=auto;orthogonalLoop=1;fontSize=11;endArrow=block;endFill=0;endSize=8;strokeWidth=1;shadow=0;labelBackgroundColor=none;edgeStyle=orthogonalEdgeStyle;" edge="1" parent="WIyWlLk6GJQsqaUBKTNV-1" source="WIyWlLk6GJQsqaUBKTNV-10" target="le7CtPeld823Pj0fUWE6-0">
          <mxGeometry x="0.3333" y="20" relative="1" as="geometry">
            <mxPoint as="offset" />
            <mxPoint x="220" y="370" as="sourcePoint" />
            <mxPoint x="220" y="545" as="targetPoint" />
          </mxGeometry>
        </mxCell>
        <mxCell id="le7CtPeld823Pj0fUWE6-4" value="" style="edgeStyle=orthogonalEdgeStyle;rounded=0;orthogonalLoop=1;jettySize=auto;html=1;" edge="1" parent="WIyWlLk6GJQsqaUBKTNV-1" source="le7CtPeld823Pj0fUWE6-0" target="le7CtPeld823Pj0fUWE6-3">
          <mxGeometry relative="1" as="geometry" />
        </mxCell>
        <mxCell id="le7CtPeld823Pj0fUWE6-0" value="检测提现金额是否正确" style="rhombus;whiteSpace=wrap;html=1;shadow=0;fontFamily=Helvetica;fontSize=12;align=center;strokeWidth=1;spacing=6;spacingTop=-4;" vertex="1" parent="WIyWlLk6GJQsqaUBKTNV-1">
          <mxGeometry x="170" y="460" width="100" height="80" as="geometry" />
        </mxCell>
        <mxCell id="le7CtPeld823Pj0fUWE6-3" value="用户余额不足" style="rounded=1;whiteSpace=wrap;html=1;fontSize=12;glass=0;strokeWidth=1;shadow=0;" vertex="1" parent="WIyWlLk6GJQsqaUBKTNV-1">
          <mxGeometry x="450" y="560" width="120" height="40" as="geometry" />
        </mxCell>
        <mxCell id="le7CtPeld823Pj0fUWE6-5" value="触发" style="text;html=1;align=center;verticalAlign=middle;resizable=0;points=[];autosize=1;strokeColor=none;fillColor=none;" vertex="1" parent="WIyWlLk6GJQsqaUBKTNV-1">
          <mxGeometry x="348.13" y="480" width="50" height="30" as="geometry" />
        </mxCell>
        <mxCell id="le7CtPeld823Pj0fUWE6-8" value="" style="edgeStyle=orthogonalEdgeStyle;rounded=0;orthogonalLoop=1;jettySize=auto;html=1;" edge="1" parent="WIyWlLk6GJQsqaUBKTNV-1" source="le7CtPeld823Pj0fUWE6-6" target="le7CtPeld823Pj0fUWE6-7">
          <mxGeometry relative="1" as="geometry" />
        </mxCell>
        <mxCell id="le7CtPeld823Pj0fUWE6-6" value="检测用户是否清算有问题，以及&lt;br&gt;拉黑的用户" style="rhombus;whiteSpace=wrap;html=1;shadow=0;fontFamily=Helvetica;fontSize=12;align=center;strokeWidth=1;spacing=6;spacingTop=-4;" vertex="1" parent="WIyWlLk6GJQsqaUBKTNV-1">
          <mxGeometry x="91.88" y="657.5" width="256.25" height="205" as="geometry" />
        </mxCell>
        <mxCell id="le7CtPeld823Pj0fUWE6-7" value="提示黑名单或者清算问题" style="rounded=1;whiteSpace=wrap;html=1;fontSize=12;glass=0;strokeWidth=1;shadow=0;" vertex="1" parent="WIyWlLk6GJQsqaUBKTNV-1">
          <mxGeometry x="460" y="740" width="120" height="40" as="geometry" />
        </mxCell>
        <mxCell id="le7CtPeld823Pj0fUWE6-9" value="触发" style="text;html=1;align=center;verticalAlign=middle;resizable=0;points=[];autosize=1;strokeColor=none;fillColor=none;" vertex="1" parent="WIyWlLk6GJQsqaUBKTNV-1">
          <mxGeometry x="380" y="730" width="50" height="30" as="geometry" />
        </mxCell>
        <mxCell id="le7CtPeld823Pj0fUWE6-12" value="" style="edgeStyle=orthogonalEdgeStyle;rounded=0;orthogonalLoop=1;jettySize=auto;html=1;" edge="1" parent="WIyWlLk6GJQsqaUBKTNV-1" source="le7CtPeld823Pj0fUWE6-10" target="le7CtPeld823Pj0fUWE6-11">
          <mxGeometry relative="1" as="geometry">
            <Array as="points">
              <mxPoint x="830" y="1163" />
              <mxPoint x="830" y="2060" />
            </Array>
          </mxGeometry>
        </mxCell>
        <mxCell id="le7CtPeld823Pj0fUWE6-10" value="检测是否白名单用户，从缓存中检测&lt;br&gt;" style="rhombus;whiteSpace=wrap;html=1;shadow=0;fontFamily=Helvetica;fontSize=12;align=center;strokeWidth=1;spacing=6;spacingTop=-4;" vertex="1" parent="WIyWlLk6GJQsqaUBKTNV-1">
          <mxGeometry x="91.88" y="1060" width="256.25" height="205" as="geometry" />
        </mxCell>
        <mxCell id="le7CtPeld823Pj0fUWE6-11" value="渠道开始打钱" style="whiteSpace=wrap;html=1;shadow=0;strokeWidth=1;spacing=6;spacingTop=-4;" vertex="1" parent="WIyWlLk6GJQsqaUBKTNV-1">
          <mxGeometry x="530.005" y="2030" width="120" height="60" as="geometry" />
        </mxCell>
        <mxCell id="le7CtPeld823Pj0fUWE6-13" value="是白名单用户直接发往渠道" style="text;html=1;align=center;verticalAlign=middle;resizable=0;points=[];autosize=1;strokeColor=none;fillColor=none;" vertex="1" parent="WIyWlLk6GJQsqaUBKTNV-1">
          <mxGeometry x="365" y="1128" width="170" height="30" as="geometry" />
        </mxCell>
        <mxCell id="le7CtPeld823Pj0fUWE6-15" value="" style="rounded=0;html=1;jettySize=auto;orthogonalLoop=1;fontSize=11;endArrow=block;endFill=0;endSize=8;strokeWidth=1;shadow=0;labelBackgroundColor=none;edgeStyle=orthogonalEdgeStyle;" edge="1" parent="WIyWlLk6GJQsqaUBKTNV-1" source="le7CtPeld823Pj0fUWE6-0" target="le7CtPeld823Pj0fUWE6-6">
          <mxGeometry x="0.3355" y="20" relative="1" as="geometry">
            <mxPoint as="offset" />
            <mxPoint x="220" y="540" as="sourcePoint" />
            <mxPoint x="310" y="1040" as="targetPoint" />
          </mxGeometry>
        </mxCell>
        <mxCell id="le7CtPeld823Pj0fUWE6-17" value="" style="edgeStyle=orthogonalEdgeStyle;rounded=0;orthogonalLoop=1;jettySize=auto;html=1;" edge="1" parent="WIyWlLk6GJQsqaUBKTNV-1" source="le7CtPeld823Pj0fUWE6-14" target="le7CtPeld823Pj0fUWE6-16">
          <mxGeometry relative="1" as="geometry" />
        </mxCell>
        <mxCell id="le7CtPeld823Pj0fUWE6-14" value="提现金额是否大于充值金额" style="rhombus;whiteSpace=wrap;html=1;shadow=0;fontFamily=Helvetica;fontSize=12;align=center;strokeWidth=1;spacing=6;spacingTop=-4;" vertex="1" parent="WIyWlLk6GJQsqaUBKTNV-1">
          <mxGeometry x="91.88" y="1410" width="256.25" height="205" as="geometry" />
        </mxCell>
        <mxCell id="le7CtPeld823Pj0fUWE6-16" value="弹窗：提现金额必须小于充值金额" style="whiteSpace=wrap;html=1;shadow=0;strokeWidth=1;spacing=6;spacingTop=-4;" vertex="1" parent="WIyWlLk6GJQsqaUBKTNV-1">
          <mxGeometry x="540.005" y="1482.5" width="120" height="60" as="geometry" />
        </mxCell>
        <mxCell id="le7CtPeld823Pj0fUWE6-18" value="大于" style="text;html=1;align=center;verticalAlign=middle;resizable=0;points=[];autosize=1;strokeColor=none;fillColor=none;" vertex="1" parent="WIyWlLk6GJQsqaUBKTNV-1">
          <mxGeometry x="385" y="1478" width="50" height="30" as="geometry" />
        </mxCell>
        <mxCell id="le7CtPeld823Pj0fUWE6-28" value="" style="edgeStyle=orthogonalEdgeStyle;rounded=0;orthogonalLoop=1;jettySize=auto;html=1;" edge="1" parent="WIyWlLk6GJQsqaUBKTNV-1" source="le7CtPeld823Pj0fUWE6-19" target="le7CtPeld823Pj0fUWE6-27">
          <mxGeometry relative="1" as="geometry" />
        </mxCell>
        <mxCell id="le7CtPeld823Pj0fUWE6-19" value="最后一笔成功充值订单，成功后24内检测" style="rhombus;whiteSpace=wrap;html=1;shadow=0;fontFamily=Helvetica;fontSize=12;align=center;strokeWidth=1;spacing=6;spacingTop=-4;" vertex="1" parent="WIyWlLk6GJQsqaUBKTNV-1">
          <mxGeometry x="91.88" y="1740" width="256.25" height="205" as="geometry" />
        </mxCell>
        <mxCell id="le7CtPeld823Pj0fUWE6-24" value="" style="endArrow=classic;html=1;rounded=0;exitX=0.5;exitY=1;exitDx=0;exitDy=0;" edge="1" parent="WIyWlLk6GJQsqaUBKTNV-1" source="le7CtPeld823Pj0fUWE6-10" target="le7CtPeld823Pj0fUWE6-14">
          <mxGeometry width="50" height="50" relative="1" as="geometry">
            <mxPoint x="330" y="1280" as="sourcePoint" />
            <mxPoint x="380" y="1230" as="targetPoint" />
          </mxGeometry>
        </mxCell>
        <mxCell id="le7CtPeld823Pj0fUWE6-25" value="" style="endArrow=classic;html=1;rounded=0;exitX=0.5;exitY=1;exitDx=0;exitDy=0;entryX=0.5;entryY=0;entryDx=0;entryDy=0;" edge="1" parent="WIyWlLk6GJQsqaUBKTNV-1" source="le7CtPeld823Pj0fUWE6-34" target="WIyWlLk6GJQsqaUBKTNV-11">
          <mxGeometry width="50" height="50" relative="1" as="geometry">
            <mxPoint x="330.01" y="2660" as="sourcePoint" />
            <mxPoint x="380.01" y="2610" as="targetPoint" />
          </mxGeometry>
        </mxCell>
        <mxCell id="le7CtPeld823Pj0fUWE6-26" value="" style="endArrow=classic;html=1;rounded=0;exitX=0.5;exitY=1;exitDx=0;exitDy=0;entryX=0.5;entryY=0;entryDx=0;entryDy=0;" edge="1" parent="WIyWlLk6GJQsqaUBKTNV-1" source="le7CtPeld823Pj0fUWE6-6" target="le7CtPeld823Pj0fUWE6-10">
          <mxGeometry width="50" height="50" relative="1" as="geometry">
            <mxPoint x="330" y="750" as="sourcePoint" />
            <mxPoint x="380" y="700" as="targetPoint" />
          </mxGeometry>
        </mxCell>
        <mxCell id="le7CtPeld823Pj0fUWE6-27" value="弹窗：为了防洗钱，充值24小时后才可以提现。否则弹窗提示“为了防洗钱，充值24小时后才可以提现”a" style="whiteSpace=wrap;html=1;shadow=0;strokeWidth=1;spacing=6;spacingTop=-4;" vertex="1" parent="WIyWlLk6GJQsqaUBKTNV-1">
          <mxGeometry x="560" y="1791.25" width="205" height="102.5" as="geometry" />
        </mxCell>
        <mxCell id="le7CtPeld823Pj0fUWE6-29" value="在24小时内话" style="text;html=1;align=center;verticalAlign=middle;resizable=0;points=[];autosize=1;strokeColor=none;fillColor=none;" vertex="1" parent="WIyWlLk6GJQsqaUBKTNV-1">
          <mxGeometry x="400" y="1808" width="100" height="30" as="geometry" />
        </mxCell>
        <mxCell id="le7CtPeld823Pj0fUWE6-32" value="" style="edgeStyle=orthogonalEdgeStyle;rounded=0;orthogonalLoop=1;jettySize=auto;html=1;" edge="1" parent="WIyWlLk6GJQsqaUBKTNV-1" source="le7CtPeld823Pj0fUWE6-30" target="le7CtPeld823Pj0fUWE6-31">
          <mxGeometry relative="1" as="geometry" />
        </mxCell>
        <mxCell id="le7CtPeld823Pj0fUWE6-30" value="黑名单拦截提现" style="rhombus;whiteSpace=wrap;html=1;shadow=0;fontFamily=Helvetica;fontSize=12;align=center;strokeWidth=1;spacing=6;spacingTop=-4;" vertex="1" parent="WIyWlLk6GJQsqaUBKTNV-1">
          <mxGeometry x="91.86999999999999" y="2150" width="256.25" height="205" as="geometry" />
        </mxCell>
        <mxCell id="le7CtPeld823Pj0fUWE6-31" value="给用户一个：NullMessage 的提示" style="whiteSpace=wrap;html=1;shadow=0;strokeWidth=1;spacing=6;spacingTop=-4;" vertex="1" parent="WIyWlLk6GJQsqaUBKTNV-1">
          <mxGeometry x="630.005" y="2222.5" width="120" height="60" as="geometry" />
        </mxCell>
        <mxCell id="le7CtPeld823Pj0fUWE6-33" value="黑名单" style="text;html=1;align=center;verticalAlign=middle;resizable=0;points=[];autosize=1;strokeColor=none;fillColor=none;" vertex="1" parent="WIyWlLk6GJQsqaUBKTNV-1">
          <mxGeometry x="450" y="2220" width="60" height="30" as="geometry" />
        </mxCell>
        <mxCell id="le7CtPeld823Pj0fUWE6-35" value="" style="endArrow=classic;html=1;rounded=0;exitX=0.5;exitY=1;exitDx=0;exitDy=0;entryX=0.5;entryY=0;entryDx=0;entryDy=0;" edge="1" parent="WIyWlLk6GJQsqaUBKTNV-1" source="le7CtPeld823Pj0fUWE6-46" target="le7CtPeld823Pj0fUWE6-34">
          <mxGeometry width="50" height="50" relative="1" as="geometry">
            <mxPoint x="220" y="1945" as="sourcePoint" />
            <mxPoint x="220" y="3430" as="targetPoint" />
          </mxGeometry>
        </mxCell>
        <mxCell id="le7CtPeld823Pj0fUWE6-37" value="" style="edgeStyle=orthogonalEdgeStyle;rounded=0;orthogonalLoop=1;jettySize=auto;html=1;" edge="1" parent="WIyWlLk6GJQsqaUBKTNV-1" source="le7CtPeld823Pj0fUWE6-34" target="le7CtPeld823Pj0fUWE6-36">
          <mxGeometry relative="1" as="geometry" />
        </mxCell>
        <mxCell id="le7CtPeld823Pj0fUWE6-34" value="是否开启了规则" style="rhombus;whiteSpace=wrap;html=1;shadow=0;fontFamily=Helvetica;fontSize=12;align=center;strokeWidth=1;spacing=6;spacingTop=-4;" vertex="1" parent="WIyWlLk6GJQsqaUBKTNV-1">
          <mxGeometry x="91.87999999999998" y="3270" width="256.25" height="205" as="geometry" />
        </mxCell>
        <mxCell id="le7CtPeld823Pj0fUWE6-50" value="" style="edgeStyle=orthogonalEdgeStyle;rounded=0;orthogonalLoop=1;jettySize=auto;html=1;" edge="1" parent="WIyWlLk6GJQsqaUBKTNV-1" source="le7CtPeld823Pj0fUWE6-36" target="le7CtPeld823Pj0fUWE6-49">
          <mxGeometry relative="1" as="geometry" />
        </mxCell>
        <mxCell id="le7CtPeld823Pj0fUWE6-36" value="最小提币金额检测" style="whiteSpace=wrap;html=1;shadow=0;strokeWidth=1;spacing=6;spacingTop=-4;" vertex="1" parent="WIyWlLk6GJQsqaUBKTNV-1">
          <mxGeometry x="599.995" y="3342.5" width="120" height="60" as="geometry" />
        </mxCell>
        <mxCell id="le7CtPeld823Pj0fUWE6-41" value="" style="edgeStyle=orthogonalEdgeStyle;rounded=0;orthogonalLoop=1;jettySize=auto;html=1;" edge="1" parent="WIyWlLk6GJQsqaUBKTNV-1" source="le7CtPeld823Pj0fUWE6-39" target="le7CtPeld823Pj0fUWE6-40">
          <mxGeometry relative="1" as="geometry" />
        </mxCell>
        <mxCell id="le7CtPeld823Pj0fUWE6-39" value="单笔最大提币金额" style="rhombus;whiteSpace=wrap;html=1;shadow=0;fontFamily=Helvetica;fontSize=12;align=center;strokeWidth=1;spacing=6;spacingTop=-4;" vertex="1" parent="WIyWlLk6GJQsqaUBKTNV-1">
          <mxGeometry x="91.88999999999999" y="3660" width="256.25" height="205" as="geometry" />
        </mxCell>
        <mxCell id="le7CtPeld823Pj0fUWE6-40" value="toast" style="whiteSpace=wrap;html=1;shadow=0;strokeWidth=1;spacing=6;spacingTop=-4;" vertex="1" parent="WIyWlLk6GJQsqaUBKTNV-1">
          <mxGeometry x="630.015" y="3732.5" width="120" height="60" as="geometry" />
        </mxCell>
        <mxCell id="le7CtPeld823Pj0fUWE6-42" value="触发" style="text;html=1;align=center;verticalAlign=middle;resizable=0;points=[];autosize=1;strokeColor=none;fillColor=none;" vertex="1" parent="WIyWlLk6GJQsqaUBKTNV-1">
          <mxGeometry x="450.01" y="3732.5" width="50" height="30" as="geometry" />
        </mxCell>
        <mxCell id="le7CtPeld823Pj0fUWE6-45" value="" style="edgeStyle=orthogonalEdgeStyle;rounded=0;orthogonalLoop=1;jettySize=auto;html=1;" edge="1" parent="WIyWlLk6GJQsqaUBKTNV-1" source="le7CtPeld823Pj0fUWE6-43" target="le7CtPeld823Pj0fUWE6-44">
          <mxGeometry relative="1" as="geometry" />
        </mxCell>
        <mxCell id="le7CtPeld823Pj0fUWE6-43" value="每日提币次数" style="rhombus;whiteSpace=wrap;html=1;shadow=0;fontFamily=Helvetica;fontSize=12;align=center;strokeWidth=1;spacing=6;spacingTop=-4;" vertex="1" parent="WIyWlLk6GJQsqaUBKTNV-1">
          <mxGeometry x="91.89999999999999" y="4100" width="256.25" height="205" as="geometry" />
        </mxCell>
        <mxCell id="le7CtPeld823Pj0fUWE6-44" value="toast" style="whiteSpace=wrap;html=1;shadow=0;strokeWidth=1;spacing=6;spacingTop=-4;" vertex="1" parent="WIyWlLk6GJQsqaUBKTNV-1">
          <mxGeometry x="496.275" y="4172.5" width="120" height="60" as="geometry" />
        </mxCell>
        <mxCell id="le7CtPeld823Pj0fUWE6-47" value="" style="endArrow=classic;html=1;rounded=0;exitX=0.5;exitY=1;exitDx=0;exitDy=0;entryX=0.5;entryY=0;entryDx=0;entryDy=0;" edge="1" parent="WIyWlLk6GJQsqaUBKTNV-1" source="le7CtPeld823Pj0fUWE6-19" target="le7CtPeld823Pj0fUWE6-30">
          <mxGeometry width="50" height="50" relative="1" as="geometry">
            <mxPoint x="220" y="1945" as="sourcePoint" />
            <mxPoint x="220" y="3270" as="targetPoint" />
          </mxGeometry>
        </mxCell>
        <mxCell id="le7CtPeld823Pj0fUWE6-46" value="后台配置检测&lt;br&gt;交易配置表：UserOperationRules&lt;br&gt;的所有规则" style="ellipse;whiteSpace=wrap;html=1;aspect=fixed;" vertex="1" parent="WIyWlLk6GJQsqaUBKTNV-1">
          <mxGeometry x="125" y="2620" width="190" height="190" as="geometry" />
        </mxCell>
        <mxCell id="le7CtPeld823Pj0fUWE6-48" value="" style="endArrow=classic;html=1;rounded=0;exitX=0.5;exitY=1;exitDx=0;exitDy=0;entryX=0.5;entryY=0;entryDx=0;entryDy=0;" edge="1" parent="WIyWlLk6GJQsqaUBKTNV-1" source="le7CtPeld823Pj0fUWE6-30" target="le7CtPeld823Pj0fUWE6-46">
          <mxGeometry width="50" height="50" relative="1" as="geometry">
            <mxPoint x="190" y="2440" as="sourcePoint" />
            <mxPoint x="240" y="2390" as="targetPoint" />
          </mxGeometry>
        </mxCell>
        <mxCell id="le7CtPeld823Pj0fUWE6-49" value="" style="whiteSpace=wrap;html=1;shadow=0;strokeWidth=1;spacing=6;spacingTop=-4;" vertex="1" parent="WIyWlLk6GJQsqaUBKTNV-1">
          <mxGeometry x="860.005" y="3342.5" width="120" height="60" as="geometry" />
        </mxCell>
        <mxCell id="le7CtPeld823Pj0fUWE6-51" value="开启了" style="text;html=1;align=center;verticalAlign=middle;resizable=0;points=[];autosize=1;strokeColor=none;fillColor=none;" vertex="1" parent="WIyWlLk6GJQsqaUBKTNV-1">
          <mxGeometry x="440.01" y="3342.5" width="60" height="30" as="geometry" />
        </mxCell>
      </root>
    </mxGraphModel>
  </diagram>
</mxfile>
